<svg width="30" height="29" viewBox="0 0 30 29" fill="none" xmlns="http://www.w3.org/2000/svg">
<path d="M15.8492 24.6525C15.3147 24.3815 14.6853 24.3815 14.1508 24.6525L7.29905 28.1252C5.84793 28.8607 4.21403 27.5322 4.60753 25.9367L6.2096 19.4408C6.36278 18.8197 6.20131 18.162 5.77881 17.6862L0.490264 11.7297C-0.56392 10.5424 0.184914 8.64525 1.75611 8.52273L9.13377 7.94747C9.82388 7.89365 10.4305 7.46349 10.7169 6.82475L13.2712 1.12839C13.9458 -0.376129 16.0542 -0.376129 16.7288 1.12839L19.2832 6.82475C19.5695 7.46349 20.1762 7.89365 20.8662 7.94747L28.2438 8.52273C29.815 8.64525 30.564 10.5424 29.5097 11.7297L24.2212 17.6862C23.7987 18.162 23.6372 18.8197 23.7903 19.4408L25.3925 25.9367C25.786 27.5322 24.152 28.8607 22.701 28.1252L15.8492 24.6525Z" fill="#FFDF92"/>
</svg>
