<svg width="27" height="27" viewBox="0 0 27 27" fill="none" xmlns="http://www.w3.org/2000/svg">
<path d="M21.375 15.75C23.8602 15.75 25.875 18 25.875 19.6875C25.875 20.6195 25.1194 21.375 24.1875 21.375H23.625" stroke="#AFAFAF" stroke-width="1.5" stroke-linecap="round" stroke-linejoin="round"/>
<path d="M19.125 12.375C20.989 12.375 22.5 10.864 22.5 9C22.5 7.13604 20.989 5.625 19.125 5.625" stroke="#AFAFAF" stroke-width="1.5" stroke-linecap="round" stroke-linejoin="round"/>
<path d="M8.4375 21.375H18.5625C19.4945 21.375 20.25 20.6195 20.25 19.6875C20.25 16.875 16.875 15.75 13.5 15.75C10.125 15.75 6.75 16.875 6.75 19.6875C6.75 20.6195 7.50552 21.375 8.4375 21.375Z" stroke="#AFAFAF" stroke-width="1.5" stroke-linecap="round" stroke-linejoin="round"/>
<path d="M13.5 12.375C15.364 12.375 16.875 10.864 16.875 9C16.875 7.13604 15.364 5.625 13.5 5.625C11.636 5.625 10.125 7.13604 10.125 9C10.125 10.864 11.636 12.375 13.5 12.375Z" stroke="#AFAFAF" stroke-width="1.5" stroke-linecap="round" stroke-linejoin="round"/>
<path d="M5.625 15.75C3.13972 15.75 1.125 18 1.125 19.6875C1.125 20.6195 1.88052 21.375 2.8125 21.375H3.375" stroke="#AFAFAF" stroke-width="1.5" stroke-linecap="round" stroke-linejoin="round"/>
<path d="M7.875 12.375C6.01104 12.375 4.5 10.864 4.5 9C4.5 7.13604 6.01104 5.625 7.875 5.625" stroke="#AFAFAF" stroke-width="1.5" stroke-linecap="round" stroke-linejoin="round"/>
</svg>
