<svg width="27" height="27" viewBox="0 0 27 27" fill="none" xmlns="http://www.w3.org/2000/svg">
<path fill-rule="evenodd" clip-rule="evenodd" d="M19.8533 1.60247C19.8533 1.28066 20.126 1.01807 20.4662 1.01807C20.8037 1.01807 21.0791 1.27809 21.0791 1.60247V7.65246C21.0791 7.97427 20.8064 8.23687 20.4662 8.23687C20.1287 8.23687 19.8533 7.97685 19.8533 7.65246V1.60247ZM14.6801 1.60247V9.11476C14.6504 9.65797 14.8043 10.1034 15.1175 10.4767C15.4118 10.8268 15.8357 11.0894 16.3676 11.2902C16.7186 11.4241 16.994 11.5914 17.1695 11.7742C17.2829 11.8926 17.3423 12.011 17.3342 12.1166C17.3072 12.4332 17.237 12.9198 17.1479 13.5325C16.8995 15.2549 16.5161 17.9272 16.5161 20.2545C16.5161 23.089 17.1074 25.4575 19.1702 25.4575C21.233 25.4575 21.8243 23.089 21.8243 20.2545C21.8243 17.9297 21.4409 15.2549 21.1925 13.5325C21.1034 12.9198 21.0332 12.4332 21.0062 12.1166C20.9981 12.011 21.0575 11.8926 21.1709 11.7742C21.3464 11.5914 21.6218 11.4241 21.9728 11.2902C22.5047 11.0868 22.9286 10.8268 23.2229 10.4767C23.5361 10.1034 23.69 9.65797 23.6603 9.11476V1.60247C23.6603 1.28066 23.3876 1.01807 23.0474 1.01807C22.7099 1.01807 22.4345 1.27809 22.4345 1.60247V9.11476C22.4345 9.12763 22.4345 9.1405 22.4345 9.15338C22.4534 9.40825 22.394 9.60391 22.2671 9.75323C22.1159 9.93344 21.8594 10.0828 21.5192 10.2115C20.99 10.4123 20.558 10.68 20.2637 10.9915C19.9181 11.352 19.7453 11.769 19.7831 12.2144C19.8101 12.5105 19.883 13.0331 19.9775 13.6896C20.2205 15.3733 20.5958 17.9838 20.5958 20.2545C20.5958 22.4531 20.2772 24.2912 19.1648 24.2912C18.0524 24.2912 17.7338 22.4531 17.7338 20.2545C17.7338 17.9838 18.1091 15.3707 18.3521 13.6896C18.4466 13.0331 18.5222 12.5105 18.5465 12.2144C18.587 11.769 18.4115 11.352 18.0659 10.9915C17.7716 10.6826 17.3396 10.4149 16.8104 10.2115C16.4702 10.0828 16.2137 9.93344 16.0625 9.75323C15.941 9.60906 15.8816 9.4237 15.8951 9.1817C15.8978 9.15853 15.8978 9.13793 15.8978 9.11476V1.60247C15.8978 1.28066 15.6251 1.01807 15.2849 1.01807C14.9555 1.02064 14.6801 1.28066 14.6801 1.60247ZM17.2667 1.60247C17.2667 1.28066 17.5394 1.01807 17.8796 1.01807C18.2171 1.01807 18.4925 1.27809 18.4925 1.60247V7.65246C18.4925 7.97427 18.2198 8.23687 17.8796 8.23687C17.5421 8.23687 17.2667 7.97685 17.2667 7.65246V1.60247Z" fill="#303030"/>
<path fill-rule="evenodd" clip-rule="evenodd" d="M7.5981 2.16623C6.5289 2.16623 5.6784 2.59874 5.106 3.25266C4.8225 3.57704 4.6038 3.95291 4.4553 4.35968C4.3068 4.76902 4.2285 5.21182 4.2285 5.6675C4.2285 6.7565 4.6902 7.87897 5.7 8.68478C7.2525 9.92052 7.0905 11.321 7.0041 12.0573C6.9987 12.1037 6.9933 12.1449 6.9879 12.2144C6.9609 12.5233 6.8826 13.0536 6.7854 13.723C6.537 15.417 6.1536 18.0352 6.1536 20.2982C6.1536 22.4788 6.4749 24.2938 7.5954 24.2938C8.7159 24.2938 9.0372 22.4788 9.0372 20.2982C9.0372 18.0352 8.6538 15.417 8.4054 13.723C8.3082 13.0562 8.2299 12.5259 8.2029 12.2144C8.1975 12.1449 8.1921 12.1037 8.1867 12.0573C8.1003 11.321 7.9383 9.92052 9.4908 8.68478C10.5033 7.87897 10.9623 6.7565 10.9623 5.6675C10.9623 5.21182 10.884 4.76902 10.7355 4.35968C10.587 3.95549 10.3683 3.57704 10.0848 3.25266C9.5178 2.59874 8.6673 2.16623 7.5981 2.16623ZM7.5981 1C9.0642 1 10.2333 1.59728 11.0271 2.50606C11.4051 2.936 11.694 3.43802 11.8938 3.98123C12.0909 4.51929 12.1908 5.0934 12.1908 5.6675C12.1908 7.07831 11.5914 8.53031 10.2792 9.57812C9.2289 10.4148 9.345 11.4086 9.4044 11.9312C9.4152 12.0136 9.4233 12.0882 9.426 12.1191C9.453 12.4332 9.5259 12.9326 9.6177 13.5634C9.8715 15.296 10.263 17.9734 10.263 20.2982C10.263 23.1147 9.6663 25.46 7.5954 25.46C5.5245 25.46 4.9278 23.1147 4.9278 20.2982C4.9278 17.9734 5.3193 15.296 5.5731 13.5634C5.6649 12.9326 5.7378 12.4332 5.7648 12.1191C5.7675 12.0856 5.7756 12.011 5.7864 11.9312C5.8485 11.4086 5.9619 10.4148 4.9116 9.57812C3.5994 8.53288 3 7.07831 3 5.6675C3 5.0934 3.1026 4.51929 3.297 3.98123C3.4941 3.43802 3.7857 2.936 4.1637 2.50606C4.9629 1.59728 6.132 1 7.5981 1Z" fill="#303030"/>
</svg>
